<svg width="36" height="36" viewBox="0 0 36 36" fill="none" xmlns="http://www.w3.org/2000/svg">
<path fill-rule="evenodd" clip-rule="evenodd" d="M0 18C0 8.07472 8.07472 0 18 0C27.9253 0 36 8.07472 36 18C36 27.9253 27.9253 36 18 36C8.07472 36 0 27.9253 0 18ZM2.29787 18C2.29787 26.6582 9.34177 33.7021 18 33.7021C26.6582 33.7021 33.7021 26.6582 33.7021 18C33.7021 9.34177 26.6582 2.29787 18 2.29787C9.34177 2.29787 2.29787 9.34177 2.29787 18Z" fill="black"/>
<path d="M21.2463 11.448C19.9823 11.448 19.3503 12.136 19.3503 13.512V14.28H22.8783V16.68H19.4463V27H16.4463V16.68H14.3343V14.28H16.4463V13.464C16.4463 12.088 16.8463 11.008 17.6463 10.224C18.4463 9.424 19.5743 9.024 21.0303 9.024C22.1823 9.024 23.0863 9.256 23.7423 9.72L22.9023 11.976C22.3903 11.624 21.8383 11.448 21.2463 11.448Z" fill="black"/>
</svg>
