<svg width="36" height="36" viewBox="0 0 36 36" fill="none" xmlns="http://www.w3.org/2000/svg">
<path fill-rule="evenodd" clip-rule="evenodd" d="M0 18C0 8.07472 8.07472 0 18 0C27.9253 0 36 8.07472 36 18C36 27.9253 27.9253 36 18 36C8.07472 36 0 27.9253 0 18ZM2.29787 18C2.29787 26.6582 9.34177 33.7021 18 33.7021C26.6582 33.7021 33.7021 26.6582 33.7021 18C33.7021 9.34177 26.6582 2.29787 18 2.29787C9.34177 2.29787 2.29787 9.34177 2.29787 18Z" fill="#232323"/>
<path d="M22.4806 8H13.5192C10.4759 8 8 10.476 8 13.5193V22.4807C8 25.5241 10.4759 28 13.5192 28H22.4806C25.5241 28 28 25.524 28 22.4807V13.5193C28.0001 10.476 25.5241 8 22.4806 8ZM26.2256 22.4807C26.2256 24.5456 24.5456 26.2255 22.4807 26.2255H13.5192C11.4544 26.2256 9.7745 24.5456 9.7745 22.4807V13.5193C9.7745 11.4545 11.4544 9.7745 13.5192 9.7745H22.4806C24.5455 9.7745 26.2255 11.4545 26.2255 13.5193V22.4807H26.2256Z" fill="#232323"/>
<path d="M18.0002 12.8467C15.1585 12.8467 12.8467 15.1586 12.8467 18.0002C12.8467 20.8418 15.1585 23.1535 18.0002 23.1535C20.8419 23.1535 23.1537 20.8418 23.1537 18.0002C23.1537 15.1586 20.8419 12.8467 18.0002 12.8467ZM18.0002 21.3789C16.1371 21.3789 14.6212 19.8632 14.6212 18.0001C14.6212 16.1369 16.137 14.6211 18.0002 14.6211C19.8634 14.6211 21.3792 16.1369 21.3792 18.0001C21.3792 19.8632 19.8633 21.3789 18.0002 21.3789Z" fill="#232323"/>
<path d="M23.3697 11.342C23.0278 11.342 22.6919 11.4805 22.4505 11.723C22.2078 11.9643 22.0684 12.3003 22.0684 12.6433C22.0684 12.9853 22.208 13.3212 22.4505 13.5637C22.6918 13.805 23.0278 13.9446 23.3697 13.9446C23.7127 13.9446 24.0475 13.805 24.29 13.5637C24.5325 13.3212 24.6709 12.9852 24.6709 12.6433C24.6709 12.3003 24.5325 11.9643 24.29 11.723C24.0487 11.4805 23.7127 11.342 23.3697 11.342Z" fill="#232323"/>
</svg>
