<svg width="36" height="36" viewBox="0 0 36 36" fill="none" xmlns="http://www.w3.org/2000/svg">
<path fill-rule="evenodd" clip-rule="evenodd" d="M0 18C0 8.07472 8.07472 0 18 0C27.9253 0 36 8.07472 36 18C36 27.9253 27.9253 36 18 36C8.07472 36 0 27.9253 0 18ZM2.29787 18C2.29787 26.6582 9.34177 33.7021 18 33.7021C26.6582 33.7021 33.7021 26.6582 33.7021 18C33.7021 9.34177 26.6582 2.29787 18 2.29787C9.34177 2.29787 2.29787 9.34177 2.29787 18Z" fill="#232323"/>
<path d="M24.6154 11H11.3846C9.51534 11 8 12.5153 8 14.3846V21.4615C8 23.3308 9.51534 24.8462 11.3846 24.8462H24.6154C26.4847 24.8462 28 23.3308 28 21.4615V14.3846C28 12.5153 26.4847 11 24.6154 11Z" stroke="#232323" stroke-width="1.7" stroke-linecap="round" stroke-linejoin="round"/>
<path d="M20.7693 17.3754C20.8701 17.427 20.9547 17.5055 21.0137 17.6021C21.0728 17.6987 21.1041 17.8098 21.1041 17.9231C21.1041 18.0363 21.0728 18.1474 21.0137 18.244C20.9547 18.3407 20.8701 18.4191 20.7693 18.4708L18.8462 19.4615L16.7416 20.5415C16.648 20.5893 16.5438 20.6124 16.4388 20.6085C16.3338 20.6046 16.2315 20.5739 16.1418 20.5193C16.052 20.4647 15.9777 20.388 15.926 20.2966C15.8742 20.2051 15.8468 20.102 15.8462 19.9969V15.8492C15.8462 15.7439 15.8733 15.6403 15.9249 15.5485C15.9764 15.4566 16.0506 15.3795 16.1405 15.3246C16.2303 15.2696 16.3328 15.2386 16.438 15.2346C16.5433 15.2305 16.6478 15.2536 16.7416 15.3015L18.8462 16.3846L20.7693 17.3754Z" fill="#232323"/>
</svg>
