<svg width="17" height="17" viewBox="0 0 17 17" fill="none" xmlns="http://www.w3.org/2000/svg">
<path d="M4.28425 7.5827C4.11251 7.5827 3.96419 7.52355 3.83928 7.40524C3.72218 7.27904 3.66364 7.12918 3.66364 6.95566C3.66364 6.78215 3.72218 6.63623 3.83928 6.51792C3.96419 6.39173 4.11251 6.32863 4.28425 6.32863H6.33346C6.39591 6.32863 6.42714 6.29313 6.42714 6.22215V4.19907C6.42714 4.01766 6.49349 3.85991 6.62621 3.72583C6.75892 3.59175 6.91505 3.5247 7.0946 3.5247C7.27415 3.5247 7.43028 3.59175 7.56299 3.72583C7.6957 3.85991 7.76205 4.01766 7.76205 4.19907V6.22215C7.76205 6.29313 7.79328 6.32863 7.85573 6.32863H9.90494C10.0767 6.32863 10.2211 6.39173 10.3382 6.51792C10.4631 6.63623 10.5256 6.78215 10.5256 6.95566C10.5256 7.12918 10.4631 7.27904 10.3382 7.40524C10.2211 7.52355 10.0767 7.5827 9.90494 7.5827H7.85573C7.79328 7.5827 7.76205 7.61819 7.76205 7.68918V9.71226C7.76205 9.89367 7.6957 10.0514 7.56299 10.1855C7.43028 10.3196 7.27415 10.3866 7.0946 10.3866C6.91505 10.3866 6.75892 10.3196 6.62621 10.1855C6.49349 10.0514 6.42714 9.89367 6.42714 9.71226V7.68918C6.42714 7.61819 6.39591 7.5827 6.33346 7.5827H4.28425Z" fill="white"/>
<path d="M16.7918 15.7927L12.7049 11.7057C13.718 10.4706 14.3286 8.88857 14.3286 7.16429C14.3286 3.20918 11.1194 0 7.16429 0C3.20571 0 0 3.20918 0 7.16429C0 11.1194 3.20571 14.3286 7.16429 14.3286C8.88857 14.3286 10.4671 13.7214 11.7022 12.7084L15.7892 16.7918C16.0667 17.0694 16.5143 17.0694 16.7918 16.7918C17.0694 16.5178 17.0694 16.0667 16.7918 15.7927ZM7.16429 12.9027C3.99673 12.9027 1.42245 10.3284 1.42245 7.16429C1.42245 4.0002 3.99673 1.42245 7.16429 1.42245C10.3284 1.42245 12.9061 4.0002 12.9061 7.16429C12.9061 10.3284 10.3284 12.9027 7.16429 12.9027Z" fill="white"/>
</svg>
