<svg width="18" height="16" viewBox="0 0 18 16" fill="none" xmlns="http://www.w3.org/2000/svg">
<path d="M0.600005 0C0.268622 0 0 0.262078 0 0.585365C0 0.908653 0.268622 1.17073 0.600005 1.17073H2.59378C3.58683 3.57024 4.56498 5.97414 5.55004 8.37804L4.6438 10.5061C4.56788 10.6835 4.58924 10.8975 4.69882 11.0572C4.80842 11.217 5.00298 11.3179 5.20004 11.3171H15.2001C15.5171 11.3214 15.8087 11.041 15.8087 10.7317C15.8087 10.4224 15.5171 10.142 15.2001 10.1463H6.10005L6.61881 8.93902L16.2501 8.18902C16.5022 8.1697 16.7304 7.97811 16.7876 7.7378L17.9876 2.66463C18.0661 2.32293 17.7591 1.95008 17.4001 1.95122H4.20627L3.55627 0.365853C3.46727 0.151255 3.23731 5.85365e-06 3.00002 0H0.600005ZM4.68754 3.12195H16.6439L15.7126 7.06097L6.59381 7.76829L4.68754 3.12195ZM7.20006 12.0976C6.10259 12.0976 5.20004 12.9781 5.20004 14.0488C5.20004 15.1195 6.10259 16 7.20006 16C8.29752 16 9.20007 15.1195 9.20007 14.0488C9.20007 12.9781 8.29752 12.0976 7.20006 12.0976ZM13.2001 12.0976C12.1026 12.0976 11.2001 12.9781 11.2001 14.0488C11.2001 15.1195 12.1026 16 13.2001 16C14.2976 16 15.2001 15.1195 15.2001 14.0488C15.2001 12.9781 14.2976 12.0976 13.2001 12.0976ZM7.20006 13.2683C7.649 13.2683 8.00006 13.6108 8.00006 14.0488C8.00006 14.4868 7.649 14.8293 7.20006 14.8293C6.75115 14.8293 6.40005 14.4868 6.40005 14.0488C6.40005 13.6108 6.75115 13.2683 7.20006 13.2683ZM13.2001 13.2683C13.649 13.2683 14.0001 13.6108 14.0001 14.0488C14.0001 14.4868 13.649 14.8293 13.2001 14.8293C12.7512 14.8293 12.4001 14.4868 12.4001 14.0488C12.4001 13.6108 12.7512 13.2683 13.2001 13.2683Z" fill="white"/>
</svg>
