<svg width="18" height="16" viewBox="0 0 18 16" fill="none" xmlns="http://www.w3.org/2000/svg">
<path d="M5.5 0.5L9 2L10.5 1L13.5 0.5L16 2L17.5 4V6.5L16.5 8.5L15 10L13.5 12.5L11 14.5L9 15.5L8 14.5L4.5 12L1.5 8.5L0.5 6L1 3L3 1L5.5 0.5Z" fill="#25716C" fill-opacity="0.5"/>
<path d="M9 16L8.72222 15.8362C3.72222 13.1058 1.5 9.61092 0.611111 7.75427C0.444444 7.48123 0.222222 6.88055 0.222222 6.82594C0.0555553 6.27986 0 5.7884 0 5.24232C0 2.34812 2.38889 0 5.33333 0C6.72222 0 8.05556 0.546075 9 1.4744C10 0.546075 11.2778 0 12.6667 0C15.6111 0 18 2.34812 18 5.24232C18 5.7884 17.7778 6.66212 17.7778 6.71672V6.77133C17.7778 6.82594 17.5556 7.42662 17.3889 7.75427C16.5 9.55631 14.2778 13.0512 9.27778 15.7816L9 16ZM5.33333 1.14676C3 1.14676 1.11111 3.00341 1.11111 5.29693C1.11111 5.73379 1.16667 6.11604 1.27778 6.49829C1.33333 6.71672 1.5 7.09898 1.61111 7.2628C2.44444 8.95563 4.5 12.1229 9 14.6894C13.5 12.1229 15.5556 8.95563 16.3889 7.2628C16.5 7.04437 16.6667 6.66212 16.7222 6.44369C16.7778 6.17065 16.8889 5.56997 16.8889 5.24232C16.8889 2.94881 15 1.09215 12.6667 1.09215C11.3889 1.09215 10.2222 1.63823 9.38889 2.62116L9 3.11263L8.55556 2.62116C7.77778 1.69283 6.55555 1.14676 5.33333 1.14676Z" fill="white"/>
</svg>
