<svg width="28" height="28" viewBox="0 0 28 28" fill="none" xmlns="http://www.w3.org/2000/svg">
<path d="M27.4855 12.752L27.5006 12.7793L27.5255 12.7983C27.6254 12.8747 27.7065 12.9726 27.7626 13.0846C27.8178 13.1944 27.8475 13.3149 27.8499 13.4375C27.8443 13.4958 27.8324 13.5533 27.8143 13.6091L27.8028 13.6442L27.809 13.6807C27.8349 13.8324 27.8486 13.986 27.85 14.1399V19.4086C27.8479 20.0079 27.6543 20.5912 27.2969 21.074C26.9394 21.5569 26.4368 21.9144 25.8613 22.0947L25.7779 22.1208L25.7595 22.2063C25.5788 23.0476 25.1173 23.8036 24.4499 24.3515C23.7824 24.8994 22.9482 25.207 22.0826 25.2242C21.217 25.2414 20.371 24.9672 19.6821 24.4462C18.9931 23.9252 18.5017 23.1881 18.2873 22.3547L18.2583 22.2421H18.142H10.858H10.7415L10.7127 22.3549C10.5029 23.1753 10.0242 23.903 9.35181 24.4228C8.67946 24.9427 7.85193 25.225 7 25.225C6.14807 25.225 5.32054 24.9427 4.64819 24.4228C3.97585 23.903 3.49707 23.1753 3.28733 22.3549L3.25848 22.2421H3.142H1C0.774291 22.2421 0.557997 22.1529 0.398657 21.9945C0.239344 21.8361 0.15 21.6214 0.15 21.3977C0.15 21.1741 0.239344 20.9594 0.398656 20.801C0.557998 20.6426 0.774291 20.5534 1 20.5534H3.142H3.25848L3.28733 20.4406C3.49707 19.6202 3.97585 18.8925 4.64819 18.3726C5.32054 17.8528 6.14807 17.5705 7 17.5705C7.85193 17.5705 8.67946 17.8528 9.35181 18.3726C10.0242 18.8925 10.5029 19.6202 10.7127 20.4406L10.7415 20.5534H10.858H16H16.15V20.4034V6.48296V6.48287C16.1498 6.17918 16.0284 5.88815 15.8127 5.67367C15.597 5.45922 15.3047 5.33882 15.0001 5.33864H15H1C0.774291 5.33864 0.557998 5.24948 0.398657 5.09104C0.239344 4.93263 0.15 4.71797 0.15 4.49432C0.15 4.27067 0.239344 4.056 0.398657 3.8976C0.557998 3.73916 0.774291 3.65 1 3.65H14.9999C15.7558 3.65085 16.4803 3.9498 17.0146 4.48101C17.5488 5.01222 17.8492 5.73226 17.85 6.48312V7.47728V7.62728H18H22.04H22.0401C22.4664 7.6271 22.8872 7.7222 23.2715 7.90551C23.6558 8.08882 23.9937 8.35563 24.2602 8.68616L27.2239 12.3691L27.2252 12.3706C27.3235 12.4896 27.4106 12.6172 27.4855 12.752ZM22.0402 9.31591H22.04H18H17.85V9.46591V12.4489V12.5989H18H24.9184H25.2316L25.0353 12.3548L22.9353 9.7448C22.8278 9.61112 22.6916 9.50322 22.5367 9.42901C22.3818 9.3548 22.2121 9.31616 22.0402 9.31591ZM7 23.5364H7.0002C7.56985 23.5356 8.11612 23.3103 8.51919 22.9095C8.92228 22.5087 9.14923 21.9651 9.15 21.3979V21.3977C9.15 20.9746 9.02379 20.561 8.78744 20.2092C8.55109 19.8575 8.21525 19.5835 7.82249 19.4218C7.42973 19.26 6.99761 19.2177 6.58072 19.3002C6.16382 19.3826 5.78076 19.5862 5.48002 19.8852C5.17928 20.1842 4.97437 20.5653 4.89134 20.9804C4.80832 21.3954 4.85094 21.8256 5.01377 22.2164C5.17661 22.6073 5.4523 22.9413 5.80585 23.1762C6.1594 23.4111 6.57496 23.5364 7 23.5364ZM22 23.5364H22.0002C22.5699 23.5356 23.1161 23.3103 23.5192 22.9095C23.9223 22.5087 24.1492 21.9651 24.15 21.3979V21.3977C24.15 20.9746 24.0238 20.561 23.7874 20.2092C23.5511 19.8575 23.2153 19.5835 22.8225 19.4218C22.4297 19.26 21.9976 19.2177 21.5807 19.3002C21.1638 19.3826 20.7808 19.5862 20.48 19.8852C20.1793 20.1842 19.9744 20.5653 19.8913 20.9804C19.8083 21.3954 19.8509 21.8256 20.0138 22.2164C20.1766 22.6073 20.4523 22.9413 20.8059 23.1762C21.1594 23.4111 21.575 23.5364 22 23.5364ZM25.6068 20.102L25.6912 20.3383L25.8593 20.152C26.0432 19.9483 26.1466 19.685 26.15 19.411V19.4091V14.4375V14.2875H26H18H17.85V14.4375V20.4034V20.5534H18H18.142H18.2585L18.2873 20.4405C18.4893 19.6495 18.9416 18.9439 19.5778 18.4277C20.214 17.9116 21.0003 17.6124 21.8208 17.5745C22.6412 17.5365 23.4521 17.7618 24.1338 18.217C24.8155 18.6722 25.3318 19.3331 25.6068 20.102Z" fill="#232323" fill-opacity="0.25" stroke="#FDF6F5" stroke-width="0.3"/>
<path d="M9.11095 7.99029H4.44428C4.27751 7.99029 4.11774 7.9244 4.00007 7.80741C3.88244 7.69044 3.8165 7.53197 3.8165 7.36693C3.8165 7.20188 3.88244 7.04342 4.00007 6.92645C4.11774 6.80945 4.27751 6.74357 4.44428 6.74357H9.11095C9.27772 6.74357 9.43749 6.80945 9.55516 6.92645C9.67279 7.04342 9.73873 7.20188 9.73873 7.36693C9.73873 7.53197 9.67279 7.69044 9.55516 7.80741C9.43749 7.9244 9.27772 7.99029 9.11095 7.99029Z" fill="#232323" fill-opacity="0.25" stroke="#FDF6F5" stroke-width="0.3"/>
<path d="M6.77762 11.0835H4.44428C4.27751 11.0835 4.11774 11.0177 4.00007 10.9007C3.88244 10.7837 3.8165 10.6252 3.8165 10.4602C3.8165 10.2951 3.88244 10.1367 4.00007 10.0197C4.11774 9.90271 4.27751 9.83683 4.44428 9.83683H6.77762C6.94439 9.83683 7.10416 9.90271 7.22182 10.0197C7.33946 10.1367 7.40539 10.2951 7.40539 10.4602C7.40539 10.6252 7.33946 10.7837 7.22182 10.9007C7.10416 11.0177 6.94439 11.0835 6.77762 11.0835Z" fill="#232323" fill-opacity="0.25" stroke="#FDF6F5" stroke-width="0.3"/>
</svg>
