<svg width="18" height="18" viewBox="0 0 18 18" fill="none" xmlns="http://www.w3.org/2000/svg">
    <path d="M8.99995 13.5C8.45399 13.5 8 13.9565 8 14.5C8 15.0435 8.45099 15.5 8.99995 15.5C9.54891 15.5 10 15.0465 10 14.5C10 13.9535 9.54588 13.5 8.99995 13.5Z" fill="#DC4E41"/>
    <path fill-rule="evenodd" clip-rule="evenodd" d="M9 0C4.03345 0 0 4.03592 0 9.00105C0 13.9662 4.03358 18 9 18C13.9664 18 18 13.9662 18 9.00105C18 4.03591 13.9665 0 9 0ZM9 0.814697C13.5224 0.814697 17.1819 4.47426 17.1819 9.00105C17.1819 13.5279 13.5225 17.1853 9 17.1853C4.4775 17.1853 0.81812 13.5279 0.81812 9.00105C0.81812 4.47426 4.47762 0.814697 9 0.814697Z" fill="#DC4E41"/>
    <rect x="8.5" y="3" width="1" height="9" rx="0.5" fill="#DC4E41"/>
</svg>
