<svg width="18" height="18" viewBox="0 0 18 18" fill="none" xmlns="http://www.w3.org/2000/svg">
<path fill-rule="evenodd" clip-rule="evenodd" d="M8.98366 2.88425C6.85627 2.88425 5.10892 4.55425 5.10892 6.61991C5.10824 6.67383 5.11833 6.72735 5.13858 6.77736C5.15884 6.82737 5.18886 6.87288 5.22691 6.91125C5.26496 6.94961 5.31029 6.98008 5.36025 7.00087C5.41021 7.02166 5.46383 7.03236 5.51798 7.03236C5.57213 7.03236 5.62574 7.02166 5.67571 7.00087C5.72567 6.98008 5.77099 6.94961 5.80905 6.91125C5.8471 6.87288 5.87712 6.82737 5.89738 6.77736C5.91763 6.72735 5.92771 6.67383 5.92704 6.61991C5.92704 5.01101 7.28291 3.69894 8.98366 3.69894C9.83228 3.69894 10.6856 4.04324 11.2709 4.57646C11.8562 5.10969 12.1703 5.79733 12.0438 6.55295C12.0438 6.55309 12.0438 6.55322 12.0438 6.55336C11.7707 8.19678 11.0284 8.4712 10.1773 8.99147C9.75177 9.2516 9.29128 9.56565 8.9781 10.1102C8.6649 10.6548 8.52057 11.3916 8.60237 12.4462C8.60586 12.5 8.62005 12.5526 8.64411 12.601C8.66817 12.6493 8.70163 12.6924 8.74254 12.7277C8.78344 12.763 8.83099 12.7899 8.88242 12.8068C8.93385 12.8237 8.98814 12.8303 9.04213 12.8261C9.09613 12.822 9.14876 12.8072 9.19697 12.7826C9.24518 12.7581 9.28802 12.7242 9.32299 12.683C9.35795 12.6418 9.38437 12.5941 9.40069 12.5427C9.41701 12.4913 9.42291 12.4372 9.41806 12.3835C9.34409 11.4297 9.47793 10.8805 9.68806 10.515C9.89819 10.1496 10.2062 9.92981 10.6053 9.68579C11.4036 9.19783 12.5355 8.5832 12.8509 6.68685C12.8509 6.6867 12.8509 6.68664 12.8509 6.68643C13.0276 5.62939 12.567 4.653 11.8232 3.97539C11.0793 3.29768 10.0491 2.88425 8.98366 2.88425V2.88425Z" fill="#232323"/>
<path d="M9.0001 14.25C8.55443 14.25 8.18384 14.6219 8.18384 15.0648C8.18384 15.5075 8.55198 15.8795 9.0001 15.8795C9.44822 15.8795 9.81644 15.51 9.81644 15.0648C9.81644 14.6195 9.44574 14.25 9.0001 14.25Z" fill="#232323"/>
<path d="M9.0001 14.25C8.55443 14.25 8.18384 14.6219 8.18384 15.0648C8.18384 15.5075 8.55198 15.8795 9.0001 15.8795C9.44822 15.8795 9.81644 15.51 9.81644 15.0648C9.81644 14.6195 9.44574 14.25 9.0001 14.25Z" stroke="#232323"/>
<path fill-rule="evenodd" clip-rule="evenodd" d="M9 0C4.03345 0 0 4.03592 0 9.00105C0 13.9662 4.03357 18 9 18C13.9664 18 18 13.9662 18 9.00105C18 4.03591 13.9665 0 9 0ZM9 0.814697C13.5224 0.814697 17.1819 4.47426 17.1819 9.00105C17.1819 13.5279 13.5225 17.1853 9 17.1853C4.4775 17.1853 0.81812 13.5279 0.81812 9.00105C0.81812 4.47426 4.47762 0.814697 9 0.814697Z" fill="#232323"/>
</svg>
