<svg width="17" height="18" viewBox="0 0 17 18" fill="none" xmlns="http://www.w3.org/2000/svg">
<path d="M4.28426 8.08266C4.11252 8.08266 3.96419 8.0235 3.83929 7.90519C3.72219 7.779 3.66364 7.62914 3.66364 7.45562C3.66364 7.2821 3.72219 7.13618 3.83929 7.01788C3.96419 6.89168 4.11252 6.82858 4.28426 6.82858H6.33347C6.39592 6.82858 6.42715 6.79309 6.42715 6.7221V4.69902C6.42715 4.51761 6.4935 4.35987 6.62621 4.22578C6.75892 4.0917 6.91505 4.02466 7.0946 4.02466C7.27415 4.02466 7.43028 4.0917 7.56299 4.22578C7.6957 4.35987 7.76206 4.51761 7.76206 4.69902V6.7221C7.76206 6.79309 7.79329 6.82858 7.85574 6.82858H9.90495C10.0767 6.82858 10.2211 6.89168 10.3382 7.01788C10.4631 7.13618 10.5256 7.2821 10.5256 7.45562C10.5256 7.62914 10.4631 7.779 10.3382 7.90519C10.2211 8.0235 10.0767 8.08266 9.90495 8.08266H7.85574C7.79329 8.08266 7.76206 8.11815 7.76206 8.18913V10.2122C7.76206 10.3936 7.6957 10.5514 7.56299 10.6855C7.43028 10.8195 7.27415 10.8866 7.0946 10.8866C6.91505 10.8866 6.75892 10.8195 6.62621 10.6855C6.4935 10.5514 6.42715 10.3936 6.42715 10.2122V8.18913C6.42715 8.11815 6.39592 8.08266 6.33347 8.08266H4.28426Z" fill="#25716C"/>
<path d="M16.7918 16.2927L12.7049 12.2057C13.718 10.9706 14.3286 9.38857 14.3286 7.66429C14.3286 3.70918 11.1194 0.5 7.16429 0.5C3.20571 0.5 0 3.70918 0 7.66429C0 11.6194 3.20571 14.8286 7.16429 14.8286C8.88857 14.8286 10.4671 14.2214 11.7022 13.2084L15.7892 17.2918C16.0667 17.5694 16.5143 17.5694 16.7918 17.2918C17.0694 17.0178 17.0694 16.5667 16.7918 16.2927ZM7.16429 13.4027C3.99673 13.4027 1.42245 10.8284 1.42245 7.66429C1.42245 4.5002 3.99673 1.92245 7.16429 1.92245C10.3284 1.92245 12.9061 4.5002 12.9061 7.66429C12.9061 10.8284 10.3284 13.4027 7.16429 13.4027Z" fill="#25716C"/>
</svg>
