<svg width="26" height="22" viewBox="0 0 26 22" fill="white" xmlns="http://www.w3.org/2000/svg">
<path d="M13 22L12.5988 21.7747C5.37654 18.0205 2.16667 13.215 0.882716 10.6621C0.641975 10.2867 0.320987 9.46075 0.320987 9.38567C0.0802466 8.63481 0 7.95904 0 7.20819C0 3.22867 3.45062 0 7.7037 0C9.70988 0 11.6358 0.750854 13 2.0273C14.4444 0.750854 16.2901 0 18.2963 0C22.5494 0 26 3.22867 26 7.20819C26 7.95904 25.7422 9.01953 25.679 9.2355L25.6484 9.33594C25.5859 9.53906 25.358 10.2116 25.1173 10.6621C23.8333 13.1399 20.6441 18.0205 13.4219 21.7747L13 22ZM7.7037 1.57679C4.33333 1.57679 1.60494 4.12969 1.60494 7.28328C1.60494 7.88396 1.68519 8.40956 1.84568 8.93515C1.92593 9.23549 2.16667 9.76109 2.32716 9.98635C3.53086 12.314 6.5 16.6689 13 20.198C19.5 16.6689 22.4691 12.314 23.6728 9.98635C23.8333 9.68601 24.0741 9.16041 24.1543 8.86007C24.2346 8.48464 24.3951 7.6587 24.3951 7.20819C24.3951 4.05461 21.6667 1.50171 18.2963 1.50171C16.4506 1.50171 14.7654 2.25256 13.5617 3.6041L13 4.27986L12.358 3.6041C11.2346 2.32765 9.46913 1.57679 7.7037 1.57679Z" fill="#25716C"/>
</svg>
