<svg width="36" height="36" viewBox="0 0 36 36" fill="none" xmlns="http://www.w3.org/2000/svg">
<path d="M18 0C8.07472 0 0 8.07472 0 18C0 27.9253 8.07472 36 18 36C27.9253 36 36 27.9253 36 18C36 8.07472 27.9253 0 18 0ZM18 33.7021C9.34177 33.7021 2.29787 26.6582 2.29787 18C2.29787 9.34177 9.34177 2.29787 18 2.29787C26.6582 2.29787 33.7021 9.34177 33.7021 18C33.7021 26.6582 26.6582 33.7021 18 33.7021ZM14.563 16.8511H21.9202V18C21.9202 22.0567 18.6198 25.357 14.563 25.357C10.5062 25.357 7.20597 22.0567 7.20597 18C7.20597 13.9433 10.5063 10.643 14.563 10.643C16.1997 10.643 17.7503 11.1698 19.0471 12.1666L17.6466 13.9885C16.755 13.3031 15.6886 12.9409 14.563 12.9409C11.7732 12.9409 9.50385 15.2104 9.50385 18C9.50385 20.7896 11.7734 23.0591 14.563 23.0591C16.9577 23.0591 18.9691 21.3869 19.4907 19.1489H14.563V16.8511ZM28.3029 16.8511H30.3059V19.1489H28.3029V21.1521H26.005V19.1489H24.003V16.8511H26.005V14.8479H28.3029V16.8511Z" fill="black"/>
</svg>
