<svg width="82" height="70" viewBox="0 0 82 70" fill="none" xmlns="http://www.w3.org/2000/svg">
<path d="M44.5745 7.76782H30.9798C27.6045 2.48586 21.5867 -0.48216 15.356 0.064302C9.12592 0.610006 3.71175 4.57924 1.30042 10.369C-1.11091 16.1588 -0.120545 22.8126 3.87039 27.6436V57.9703C3.87341 60.8625 6.2092 63.206 9.09193 63.209H12.6885C13.3488 67.1298 16.7331 70 20.6961 70C24.6591 70 28.0434 67.1298 28.7036 63.209H57.1683C57.8285 67.1298 61.2128 70 65.1758 70C69.1388 70 72.5231 67.1298 73.1834 63.209H76.7785C79.6604 63.206 81.997 60.8625 82 57.9703V40.5926C82 40.5813 81.9985 40.5707 81.9977 40.5585C81.9977 40.5343 81.9962 40.51 81.9947 40.4858C81.9932 40.4646 81.9909 40.4433 81.9879 40.4229C81.9856 40.4024 81.9819 40.3774 81.9781 40.3547C81.9736 40.3319 81.9698 40.3115 81.9652 40.2902C81.96 40.269 81.9547 40.247 81.9486 40.2258C81.9426 40.2046 81.9365 40.1834 81.929 40.1621C81.9214 40.1417 81.9146 40.1205 81.9063 40.1C81.8988 40.0795 81.8905 40.0591 81.8814 40.0394C81.8723 40.0189 81.8618 39.9992 81.8519 39.9795C81.8429 39.959 81.8331 39.9401 81.821 39.9211C81.8096 39.9014 81.7991 39.8832 81.787 39.865C81.7756 39.8461 81.762 39.8264 81.7484 39.8067C81.7356 39.787 81.7243 39.7733 81.7114 39.7567C81.6986 39.74 81.6805 39.718 81.6646 39.6998C81.657 39.6915 81.6502 39.6824 81.6427 39.674L71.6808 28.7827C70.6905 27.7034 69.2959 27.088 67.8334 27.0865H49.796V13.0066C49.793 10.1151 47.4572 7.77161 44.5745 7.76782ZM16.8275 2.72309C24.6243 2.72309 30.945 9.06462 30.945 16.8871C30.945 24.7104 24.6243 31.0512 16.8275 31.0512C9.03074 31.0512 2.71005 24.7104 2.71005 16.8871C2.71912 9.06841 9.03451 2.73219 16.8275 2.72309ZM6.57785 57.9703V30.2637C12.6062 34.9158 20.996 34.931 27.0402 30.2993C33.0851 25.6684 35.2797 17.5442 32.3939 10.4842H44.5745C45.9622 10.4865 47.087 11.6143 47.0886 13.0066V60.4926H28.7021C28.0426 56.5719 24.6583 53.7017 20.6953 53.7017C16.7323 53.7017 13.348 56.5719 12.6878 60.4926H9.09193C7.7042 60.4911 6.57936 59.3633 6.57785 57.9703ZM20.6953 67.2836C17.7046 67.2836 15.2804 64.8514 15.2804 61.8508C15.2804 58.851 17.7046 56.418 20.6953 56.418C23.6861 56.418 26.1103 58.851 26.1103 61.8508C26.1065 64.8499 23.6846 67.2806 20.6953 67.2836ZM65.1751 67.2836C62.1843 67.2836 59.7601 64.8514 59.7601 61.8508C59.7601 58.851 62.1843 56.418 65.1751 56.418C68.1658 56.418 70.59 58.851 70.59 61.8508C70.5862 64.8499 68.1643 67.2806 65.1751 67.2836ZM79.2925 57.9703C79.291 59.3633 78.1662 60.4911 76.7785 60.4926H73.1811C72.5216 56.5719 69.1373 53.7017 65.1743 53.7017C61.2106 53.7017 57.8262 56.5719 57.1667 60.4926H49.796V41.9508H79.2925V57.9703ZM67.8334 29.8036C68.5375 29.8044 69.2091 30.1007 69.6857 30.6207L77.5664 39.2352H49.7953V29.8036H67.8334Z" fill="#232323"/>
<path d="M16.8806 18.2764H24.9259C25.673 18.2764 26.2796 17.6686 26.2796 16.9182C26.2796 16.1679 25.673 15.56 24.9259 15.56H18.2343V8.84635C18.2343 8.09677 17.6285 7.48816 16.8806 7.48816C16.1327 7.48816 15.5269 8.09677 15.5269 8.84635V16.9182C15.5269 17.6686 16.1327 18.2764 16.8806 18.2764Z" fill="#232323"/>
</svg>
