<svg width="80" height="80" viewBox="0 0 80 80" fill="none" xmlns="http://www.w3.org/2000/svg">
<path d="M40 80C62.0561 80 80 62.0561 80 40C80 17.9439 62.0561 0 40 0C17.9439 0 0 17.9439 0 40C0 62.0561 17.9439 80 40 80ZM40 3.56688C60.0896 3.56688 76.4331 19.9104 76.4331 40C76.4331 60.0896 60.0896 76.4331 40 76.4331C19.9104 76.4331 3.56688 60.0896 3.56688 40C3.56688 19.9104 19.9104 3.56688 40 3.56688Z" fill="#232323"/>
<path d="M30.1404 36.4053C34.2199 36.4053 37.526 33.0981 37.526 29.0197C37.527 24.9403 34.2199 21.6332 30.1404 21.6332C26.061 21.6332 22.7549 24.9403 22.7549 29.0187C22.7589 33.0962 26.063 36.4003 30.1404 36.4053ZM30.1404 25.2001C32.2493 25.2001 33.9591 26.9099 33.9591 29.0187C33.9601 31.1286 32.2503 32.8384 30.1404 32.8384C28.0316 32.8384 26.3218 31.1286 26.3218 29.0187C26.3238 26.9108 28.0326 25.203 30.1404 25.2001Z" fill="#232323"/>
<path d="M42.0264 51.4291C42.0264 55.5086 45.3335 58.8147 49.4119 58.8147C53.4913 58.8147 56.7985 55.5086 56.7985 51.4291C56.7985 47.3497 53.4913 44.0426 49.4119 44.0426C45.3345 44.0476 42.0313 47.3517 42.0264 51.4291ZM53.2316 51.4291C53.2316 53.538 51.5218 55.2478 49.4119 55.2478C47.303 55.2478 45.5932 53.538 45.5932 51.4291C45.5932 49.3203 47.303 47.6105 49.4119 47.6095C51.5208 47.6125 53.2286 49.3203 53.2316 51.4291Z" fill="#232323"/>
<path d="M26.4204 60.822C27.2454 61.3604 28.3511 61.1275 28.8885 60.3025L54.0995 21.646C54.4488 21.1116 54.4866 20.4319 54.199 19.8626C53.9104 19.2933 53.3401 18.9211 52.7032 18.8873C52.0662 18.8535 51.4592 19.162 51.1118 19.6974L25.9008 58.3539C25.3624 59.1799 25.5953 60.2846 26.4204 60.822Z" fill="#232323"/>
</svg>
