<svg width="62" height="80" viewBox="0 0 62 80" fill="none" xmlns="http://www.w3.org/2000/svg">
<path d="M61.211 16.1978L31.2864 0.17628C30.8425 -0.0617873 30.3104 -0.0584462 29.8698 0.184633L0.773161 16.2062C0.295962 16.4693 0 16.9722 0 17.5193V38.4475C0.0174585 55.651 10.1617 71.2148 25.8493 78.107L29.8881 79.8754C30.2655 80.0408 30.6953 80.0417 31.0736 79.8771L35.6244 77.9024C51.6031 71.1597 61.9983 55.4455 62 38.0324V17.5193C62 16.9663 61.6966 16.4576 61.211 16.1978ZM59.0204 38.0324C59.0171 54.2452 49.336 68.8742 34.458 75.1483L34.448 75.1533L30.485 76.8724L27.0415 75.363C12.4387 68.9477 2.99537 54.4615 2.97875 38.4475V18.4056L30.5955 3.19765L59.0204 18.4164V38.0324Z" fill="#232323"/>
<path d="M19.6043 37.477C19.0698 36.848 18.1295 36.7737 17.5035 37.3108C16.8775 37.847 16.8035 38.7926 17.3381 39.4208L25.2077 48.6804C25.7331 49.2985 26.6534 49.3829 27.2803 48.87L45.6083 33.8876C46.2468 33.3664 46.3432 32.4233 45.8236 31.7818C45.3049 31.1411 44.3663 31.0433 43.7278 31.5654L26.5287 45.6239L19.6043 37.477Z" fill="#232323"/>
</svg>
